<svg xmlns="http://www.w3.org/2000/svg" xmlns:xlink="http://www.w3.org/1999/xlink" width="142px" height="40px" viewBox="12 0 132 40" version="1.1">
    <!-- Generator: sketchtool 49.3 (51167) - http://www.bohemiancoding.com/sketch -->
    <title>6DA30047-7552-4FF2-9D08-A4E25B04FB35</title>
    <desc>Created with sketchtool.</desc>
    <defs/>
    <g id="Symbols" stroke="none" stroke-width="1" fill="none" fill-rule="evenodd">
        <g id="youfone-logo" fill="#791c59">
            <g>
                <path d="M80.5872411,5.99154213 L82.5639721,5.99154213 C85.0379588,5.99154213 84.9999663,2.10581278 84.9999663,2.10581278 C84.9999663,2.10581278 79.0753603,1.91056701 78.4518352,2.05051195 C76.0772996,2.2186716 74,4.17902939 74,7.6562098 L74,27.7992529 C74,30 78.5512863,30 78.5512863,30 L78.5512863,16.1070786 L81.4409565,16.1070786 C83.8892423,16.1070786 83.9227652,12.4290095 83.9227652,12.4290095 L78.5512863,12.4290095 L78.5512863,8.40220663 C78.5512863,6.41927707 79.0753603,5.99154213 80.5872411,5.99154213" id="Fill-1"/>
                <path d="M13.7166302,12.9680789 L14.4190372,17.9149908 C15.0547046,22.4608633 17.4463895,24.1823704 17.4824945,24.1823704 C17.4463895,24.1823704 20.0153173,22.2774334 20.5787746,17.9149908 L21.2133479,13.0033977 C21.6017505,10.0366178 26,10 26,10 L25.2242888,17.2553266 C24.6969365,22.0586846 21.7757112,25.6862681 19.6652079,27.3713171 L18.2910284,28.4718968 C16.0393873,30.3050569 14.2789934,31.8431341 14.2789934,34.2983609 C14.2789934,35.6928842 14.773523,36.9358785 15.0185996,37.4884469 C14.4190372,37.8154307 13.7866521,38 13.1531729,38 C11.5,38 9.91575492,36.790046 9.91575492,33.8950429 C9.91575492,30.5602638 12.1673961,28.6177293 14.8074398,26.6034178 C12.5547046,25.2100339 10.2330416,21.5061162 9.77680525,17.2553266 L9,10 C9,10 13.2943107,9.92610407 13.7166302,12.9680789" id="Fill-3"/>
                <path d="M41.4152745,17.0873226 C41.4152745,14.8240858 40.7463717,13.5263583 37.4994517,13.5263583 C34.2547249,13.5263583 33.5847255,14.8240858 33.5847255,17.0873226 L33.5847255,22.9138309 C33.5847255,25.1782212 34.2547249,26.4759488 37.4994517,26.4759488 C40.7463717,26.4759488 41.4152745,25.1782212 41.4152745,22.9138309 L41.4152745,17.0873226 Z M46,23.4709886 C46,27.5521975 43.283816,30 37.4994517,30 C31.7150874,30 29,27.5521975 29,23.4709886 L29,16.530165 C29,12.4512631 31.7150874,10 37.4994517,10 C43.283816,10 46,12.4512631 46,16.530165 L46,23.4709886 Z" id="Fill-5"/>
                <path d="M56.9011648,22.5977058 C56.9011648,24.4828811 57.8432008,25.5504833 60.5205045,25.5504833 C62.4408988,25.5504833 64.1000069,25.0515314 64.1000069,25.0515314 L64.1000069,10 C64.1000069,10 69,10 69,12.3122161 L69,29 C69,29 67.5307051,28.254338 65.6079675,28.254338 C63.7602178,28.254338 62.0272934,29 59.9920739,29 C56.1102764,29 52,27.7564924 52,23.1320601 L52,10 C52,10 56.9011648,10.0696984 56.9011648,12.3122161 L56.9011648,22.5977058" id="Fill-6"/>
                <path d="M99.4150651,17.0873226 C99.4150651,14.8240858 98.7430027,13.5263583 95.5,13.5263583 C92.2559009,13.5263583 91.5871276,14.8240858 91.5871276,17.0873226 L91.5871276,22.9138309 C91.5871276,25.1782212 92.2559009,26.4759488 95.5,26.4759488 C98.7430027,26.4759488 99.4150651,25.1782212 99.4150651,22.9138309 L99.4150651,17.0873226 Z M104,23.4709886 C104,27.5521975 101.284342,30 95.5,30 C89.7167548,30 87,27.5521975 87,23.4709886 L87,16.530165 C87,12.4512631 89.7167548,10 95.5,10 C101.284342,10 104,12.4512631 104,16.530165 L104,23.4709886 Z" id="Fill-7"/>
                <path d="M121.100503,16.4048673 C121.100503,14.5188053 120.155994,13.4513274 117.480665,13.4513274 C115.561177,13.4513274 113.90184,13.9502212 113.90184,13.9502212 L113.90184,29 C113.90184,29 109,29 109,26.6880531 L109,10 C109,10 110.469497,10.7455752 112.393672,10.7455752 C114.240505,10.7455752 115.97484,10 118.009168,10 C121.892673,10 126,11.2433628 126,15.8705752 L126,29 C126,29 121.100503,28.9303097 121.100503,26.6880531 L121.100503,16.4048673" id="Fill-8"/>
                <path d="M134.033425,18.1631005 C134.421075,18.2392295 135.776645,18.4976066 136.934778,18.4976066 C139.725374,18.4976066 140.694498,17.6440394 140.694498,16.1595248 C140.694498,14.603495 139.802422,13.5250014 137.401884,13.5250014 C134.7702,13.5250014 134.033425,14.8238076 134.033425,17.0880674 L134.033425,18.1631005 Z M129,23.4702117 L129,16.5309418 C129,12.4511217 132.019333,10 137.558388,10 C143.09624,10 145.729127,12.4511217 145.729127,16.1595248 C145.729127,19.3131092 143.793287,22.2440741 137.673961,22.2440741 C136.43276,22.2440741 135.193966,22.0237615 134.033425,21.5762155 L134.033425,22.9130861 C134.033425,25.1369745 135.426315,26.28929 138.333687,26.28929 C142.16564,26.28929 144.761207,24.7321068 144.799731,22.5047581 C145.611147,23.6167022 146,24.6202203 146,25.5487629 C146,28.2190438 142.785638,30 138.333687,30 C132.445507,30 129,27.5523387 129,23.4702117 Z" id="Fill-10"/>
            </g>
        </g>
    </g>
</svg>